<?xml version="1.0" encoding="UTF-8"?>
<svg id="Layer_2" data-name="Layer 2" xmlns="http://www.w3.org/2000/svg" viewBox="0 0 450.02 436.18">
  <g id="Layer_2-2" data-name="Layer 2">
    <path d="M112.97,316.1v-83.67c0-.35,.43-.54,.7-.31l125.33,105.62c.27,.23,.7,.04,.7-.31v-103.98c0-.22,.18-.4,.4-.41l28.77-1.51c.16,0,.32,.07,.4,.21l94.33,168.19c.14,.24,.47,.29,.67,.1,49.68-47.57,80.24-121.77,80.24-188.39C444.52,81.79,351.92,5.5,219.22,5.5c-20.94,0-23.98,1.51-25.44,1.93-.05,.02-.1,.04-.14,.08l-36.61,29.09c-.37,.32,.04,.89,.48,.66,28.25-14.65,39.62-12.09,61.71-11.9,117.41,1.03,203.54,82.55,203.54,197.47,0,17.15-8.65,82.21-52.88,139.71-.19,.25-.58,.21-.72-.06l-70.33-134.22c-.12-.24,.01-.52,.28-.58,25.46-5.99,45.57-22.71,45.57-50.8,0-24.84-23.04-33.53-40.96-38.5-31.56-8.75-84.5-2.78-86.96-2.49-.06,0-.12,.03-.17,.06l-101.64,64.09c-.29,.18-.67-.03-.65-.36l7.61-173.55c.01-.33-.36-.53-.65-.37-8.49,4.96-15.45,8.84-19.8,12.05-.18,.12-.35,.25-.51,.37C39.86,83.85,1.96,146.34,5.76,228.64c5.57,120.34,88.01,196.64,218.58,201.61,44.23,1.68,73.61-.85,99.28-18.84,.33-.23,.15-.75-.26-.75l-29.3-1c-.44,0-.87,.09-1.27,.25-14.9,5.97-47.56,3.56-58.2,2.96-119.79-6.82-200.98-76.5-200.98-194.99,0-60.65,26.9-112.37,61.76-145.43,.27-.26,.73-.06,.72,.31l-3.59,220.73c0,.1,.03,.2,.1,.27l19.63,22.62c.25,.29,.75,.12,.75-.26Zm110.92-166.21c.07-.05,.16-.08,.24-.08l27.09-.25c60.17,0,75.53,11.18,75.53,29.81,0,26.03-32.2,35.75-107.07,29.84-.25-.02-.46,.16-.46,.4,0,6.19,0,76.31,0,85.16,0,.36-.43,.54-.71,.3l-89.79-78.11c-.2-.18-.18-.49,.04-.64l95.13-66.44Z" style="stroke: #000; stroke-miterlimit: 10; stroke-width: 11px;"/>
  </g>
</svg>