<?xml version="1.0" encoding="utf-8"?>
<!-- Generator: Adobe Illustrator 27.0.1, SVG Export Plug-In . SVG Version: 6.00 Build 0)  -->
<svg version="1.1" id="Layer_1" xmlns="http://www.w3.org/2000/svg" xmlns:xlink="http://www.w3.org/1999/xlink" x="0px" y="0px"
	 viewBox="0 0 240 234" style="enable-background:new 0 0 240 234;" xml:space="preserve">
<style type="text/css">
	.st0{fill:#470137;}
	.st1{fill:#FF61F6;}
</style>
<g transform="matrix(1.000000125 0 0 1.000000125 159.9999625 83.00005)">
	<path class="st0" d="M-117.5-83h155C61-83,80-64,80-40.5v149C80,132,61,151,37.5,151h-155c-23.5,0-42.5-19-42.5-42.5v-149
		C-160-64-141-83-117.5-83z"/>
	<g>
		<path class="st1" d="M-33.8-21.5l-30,49.5l32,52.5c0.2,0.4,0.3,0.8,0.2,1.2s-0.5,0.1-1.1,0.2h-22.9c-1.6,0-2.7-0.1-3.4-1.1
			c-2.1-4.2-4.3-8.3-6.4-12.5c-2.1-4.1-4.4-8.3-6.8-12.6s-4.8-8.6-7.2-13h-0.2c-2.1,4.3-4.4,8.6-6.7,12.9s-4.6,8.6-6.8,12.8
			c-2.3,4.2-4.6,8.5-6.9,12.6c-0.4,1-1.2,1.1-2.3,1.1h-22c-0.4,0-0.7,0.2-0.7-0.3c-0.1-0.4,0-0.8,0.2-1.1l31.1-51L-124-21.6
			c-0.3-0.4-0.4-0.8-0.2-1c0.2-0.3,0.6-0.4,1-0.4h22.7c0.5,0,1,0.1,1.4,0.2c0.4,0.2,0.7,0.5,1,0.9c1.9,4.3,4.1,8.6,6.4,12.9
			c2.4,4.3,4.7,8.5,7.2,12.7c2.4,4.2,4.6,8.4,6.7,12.7h0.2c2.1-4.4,4.3-8.7,6.5-12.9s4.5-8.4,6.8-12.6s4.5-8.5,6.7-12.6
			c0.1-0.4,0.3-0.8,0.6-1c0.4-0.2,0.8-0.3,1.3-0.2h21.1c0.5-0.1,1,0.2,1.1,0.7C-33.4-22.1-33.6-21.7-33.8-21.5L-33.8-21.5z"/>
		<path class="st1" d="M12.4,84C5,84.1-2.4,82.6-9.1,79.5c-6.3-2.9-11.5-7.7-15.1-13.6c-3.7-6.1-5.5-13.7-5.5-22.8
			c-0.1-7.4,1.8-14.7,5.5-21.1c3.8-6.5,9.3-11.9,15.9-15.5c7-3.9,15.4-5.8,25.3-5.8c0.5,0,1.2,0,2.1,0.1S21,0.9,22.2,1v-31.6
			c0-0.7,0.3-1.1,1-1.1h20.3c0.5-0.1,0.9,0.3,1,0.7v95.4c0,1.8,0.1,3.8,0.2,6c0.2,2.1,0.3,4.1,0.4,5.8c0,0.7-0.3,1.3-1,1.6
			c-5.2,2.2-10.7,3.8-16.3,4.8C22.7,83.5,17.6,84,12.4,84z M22.2,64V20c-0.9-0.2-1.8-0.4-2.7-0.5c-1.1-0.1-2.2-0.2-3.3-0.2
			c-3.9,0-7.8,0.8-11.3,2.6c-3.4,1.7-6.3,4.2-8.5,7.4S-6.9,36.8-6.9,42c-0.1,3.5,0.5,7,1.7,10.3c1,2.7,2.5,5.1,4.5,7.1
			c1.9,1.8,4.2,3.2,6.8,4c2.7,0.9,5.5,1.3,8.3,1.3c1.5,0,2.9-0.1,4.2-0.2C19.9,64.6,21,64.4,22.2,64L22.2,64z"/>
	</g>
</g>
</svg>
